# xmcd
#
# Track frame offsets:
# 150
# 13692
# 50961
# 64940
# 115432
# 124682
# 169364
# 179324
# 212679
# 247720
# 271949
# 301987
#
# Disc length: 4625 seconds
#
#
# Revision: 0
# Processed by: cddbd v1.5.2PL0 Copyright (c) Steve Scherf et al.
# Submitted via: FreeRIP 2.96 
#
DISCID=ac120f0c
DTITLE=Pankaj Udhas - Jashn
DYEAR=2007
DGENRE=Musical
TTITLE0=Commentary by Brij Bhushan
TTITLE1=Ye Alag Baat HaiUska Ghar
TTITLE2=Comm\\entary by PU
TTITLE3=Deewaron Se Milkar Rona
TTITLE4=Commentary by PU
TTITLE5=Sabko Maloom Hai
TTITLE6=Commentary by PU
TTITLE7=Dukh Sukh Tha Ek Sabka
TTITLE8=Niklo Na Benawab
TTITLE9=Jiyen To Jiyen Kaise
TTITLE10=Sharab Cheez Hi Asi Hai
TTITLE11=Jis Din Se Juda Woh
EXTD=
EXTT0=
EXTT1=
EXTT2=
EXTT3=
EXTT4=
EXTT5=
EXTT6=
EXTT7=
EXTT8=
EXTT9=
EXTT10=
EXTT11=
PLAYORDER=
